<svg width="23" height="24" viewBox="0 0 23 24" fill="none" xmlns="http://www.w3.org/2000/svg">
<path d="M6.70646 0.442444C3.00825 0.442444 0 3.44931 0 7.14334V16.7134C0 20.4065 3.01104 23.4105 6.71021 23.4105H16.2935C19.9917 23.4105 23 20.4037 23 16.7096V7.1396C23 3.44652 19.989 0.442444 16.2898 0.442444H6.70646ZM18.2083 4.27046C18.7373 4.27046 19.1667 4.6992 19.1667 5.22746C19.1667 5.75573 18.7373 6.18447 18.2083 6.18447C17.6793 6.18447 17.25 5.75573 17.25 5.22746C17.25 4.6992 17.6793 4.27046 18.2083 4.27046ZM11.5 6.18447C14.6711 6.18447 17.25 8.75977 17.25 11.9265C17.25 15.0932 14.6711 17.6685 11.5 17.6685C8.32888 17.6685 5.75 15.0932 5.75 11.9265C5.75 8.75977 8.32888 6.18447 11.5 6.18447ZM11.5 8.09848C10.4833 8.09848 9.50831 8.50178 8.78942 9.21968C8.07053 9.93757 7.66667 10.9112 7.66667 11.9265C7.66667 12.9417 8.07053 13.9154 8.78942 14.6333C9.50831 15.3512 10.4833 15.7545 11.5 15.7545C12.5167 15.7545 13.4917 15.3512 14.2106 14.6333C14.9295 13.9154 15.3333 12.9417 15.3333 11.9265C15.3333 10.9112 14.9295 9.93757 14.2106 9.21968C13.4917 8.50178 12.5167 8.09848 11.5 8.09848Z" fill="black"/>
</svg>
