<svg width="23" height="24" viewBox="0 0 23 24" fill="none" xmlns="http://www.w3.org/2000/svg">
<path d="M4.62556 10.3825C6.46556 13.9936 9.43 16.9412 13.0461 18.7914L15.8572 15.9842C16.2022 15.6397 16.7133 15.5248 17.1606 15.6779C18.5917 16.1501 20.1378 16.4053 21.7222 16.4053C22.425 16.4053 23 16.9795 23 17.6813V22.1345C23 22.8363 22.425 23.4105 21.7222 23.4105C9.72389 23.4105 0 13.7001 0 1.71845C0 1.01665 0.575 0.442444 1.27778 0.442444H5.75C6.45278 0.442444 7.02778 1.01665 7.02778 1.71845C7.02778 3.31346 7.28333 4.84466 7.75611 6.27379C7.89667 6.72039 7.79444 7.21803 7.43667 7.57531L4.62556 10.3825Z" fill="black"/>
</svg>
